<svg width="32" height="32" viewBox="0 0 32 32" fill="none" xmlns="http://www.w3.org/2000/svg">
<path fill-rule="evenodd" clip-rule="evenodd" d="M29.3333 16C29.3333 23.364 23.364 29.3333 16 29.3333C8.63601 29.3333 2.66667 23.364 2.66667 16C2.66667 8.636 8.63601 2.66666 16 2.66666C23.364 2.66666 29.3333 8.636 29.3333 16ZM11.96 11.96C12.1475 11.7727 12.4017 11.6675 12.6667 11.6675C12.9317 11.6675 13.1858 11.7727 13.3733 11.96L16 14.5867L18.6267 11.96C18.8162 11.7834 19.067 11.6872 19.326 11.6918C19.5851 11.6963 19.8323 11.8013 20.0155 11.9845C20.1987 12.1677 20.3037 12.4149 20.3082 12.674C20.3128 12.933 20.2166 13.1838 20.04 13.3733L17.4133 16L20.04 18.6267C20.2166 18.8162 20.3128 19.067 20.3082 19.326C20.3037 19.5851 20.1987 19.8323 20.0155 20.0155C19.8323 20.1987 19.5851 20.3037 19.326 20.3082C19.067 20.3128 18.8162 20.2166 18.6267 20.04L16 17.4133L13.3733 20.04C13.1838 20.2166 12.933 20.3128 12.674 20.3082C12.4149 20.3037 12.1677 20.1987 11.9845 20.0155C11.8013 19.8323 11.6963 19.5851 11.6918 19.326C11.6872 19.067 11.7834 18.8162 11.96 18.6267L14.5867 16L11.96 13.3733C11.7727 13.1858 11.6676 12.9317 11.6676 12.6667C11.6676 12.4017 11.7727 12.1475 11.96 11.96Z" fill="white"/>
</svg>
